<svg id="Layer_1" data-name="Layer 1" xmlns="http://www.w3.org/2000/svg" xmlns:xlink="http://www.w3.org/1999/xlink" viewBox="0 0 250 250"><defs><style>.cls-1,.cls-3{fill:none;}.cls-2{clip-path:url(#clip-path);}.cls-3{stroke:#000;stroke-miterlimit:10;stroke-width:1.43px;}.cls-4{fill:#fff;}</style><clipPath id="clip-path"><polygon class="cls-1" points="59.8 112 37.12 142 55.3 160.4 124.43 137.81 212.88 204.3 212.88 106.06 176.21 79.13 126.4 69.27 95.89 45.7 104.3 76.39 59.8 112"/></clipPath></defs><title>digital_media</title><g class="cls-2"><line class="cls-3" x1="58.17" y1="7.21" x2="87.58" y2="7.21"/><line class="cls-3" x1="58.17" y1="242.79" x2="87.58" y2="242.79"/><line class="cls-3" x1="58.32" y1="36.47" x2="58.32" y2="7.06"/><line class="cls-3" x1="58.32" y1="66.18" x2="58.32" y2="36.47"/><line class="cls-3" x1="58.32" y1="95.59" x2="58.32" y2="66.18"/><line class="cls-3" x1="58.32" y1="125" x2="58.32" y2="95.59"/><line class="cls-3" x1="58.32" y1="154.41" x2="58.32" y2="125"/><line class="cls-3" x1="58.32" y1="183.82" x2="58.32" y2="154.41"/><line class="cls-3" x1="58.32" y1="213.53" x2="58.32" y2="183.82"/><line class="cls-3" x1="58.32" y1="242.94" x2="58.32" y2="213.53"/><line class="cls-3" x1="87.73" y1="7.06" x2="87.73" y2="242.94"/><line class="cls-3" x1="117.29" y1="7.21" x2="146.7" y2="7.21"/><line class="cls-3" x1="117.29" y1="242.79" x2="146.7" y2="242.79"/><line class="cls-3" x1="117.14" y1="36.47" x2="117.14" y2="7.06"/><line class="cls-3" x1="117.14" y1="66.18" x2="117.14" y2="36.47"/><line class="cls-3" x1="117.14" y1="95.59" x2="117.14" y2="66.18"/><line class="cls-3" x1="117.14" y1="125" x2="117.14" y2="95.59"/><line class="cls-3" x1="117.14" y1="154.41" x2="117.14" y2="125"/><line class="cls-3" x1="117.14" y1="183.82" x2="117.14" y2="154.41"/><line class="cls-3" x1="117.14" y1="213.53" x2="117.14" y2="183.82"/><line class="cls-3" x1="117.14" y1="242.94" x2="117.14" y2="213.53"/><line class="cls-3" x1="146.56" y1="7.06" x2="146.56" y2="242.94"/><line class="cls-3" x1="176.11" y1="7.21" x2="205.53" y2="7.21"/><line class="cls-3" x1="176.11" y1="242.79" x2="205.53" y2="242.79"/><line class="cls-3" x1="176.26" y1="36.47" x2="176.26" y2="7.06"/><line class="cls-3" x1="176.26" y1="66.18" x2="176.26" y2="36.47"/><line class="cls-3" x1="176.26" y1="95.59" x2="176.26" y2="66.18"/><line class="cls-3" x1="176.26" y1="125" x2="176.26" y2="95.59"/><line class="cls-3" x1="176.26" y1="154.41" x2="176.26" y2="125"/><line class="cls-3" x1="176.26" y1="183.82" x2="176.26" y2="154.41"/><line class="cls-3" x1="176.26" y1="213.53" x2="176.26" y2="183.82"/><line class="cls-3" x1="176.26" y1="242.94" x2="176.26" y2="213.53"/><line class="cls-3" x1="205.67" y1="7.06" x2="205.67" y2="242.94"/><polygon points="235.08 7.2 235.08 242.8 205.67 242.8 205.67 213.38 205.67 183.97 205.67 154.56 205.67 125.14 205.67 95.44 205.67 66.03 205.67 36.62 205.67 7.2 235.08 7.2"/><polygon points="176.26 7.2 176.26 242.8 146.56 242.8 146.56 213.38 146.56 183.97 146.56 154.56 146.56 125.14 146.56 95.44 146.56 66.03 146.56 36.62 146.56 7.2 176.26 7.2"/><polygon points="117.14 7.2 117.14 242.8 87.73 242.8 87.73 213.38 87.73 183.97 87.73 154.56 87.73 125.14 87.73 95.44 87.73 66.03 87.73 36.62 87.73 7.2 117.14 7.2"/><polygon points="58.32 7.2 58.32 242.8 28.61 242.8 28.61 213.38 28.61 183.97 28.61 154.56 28.61 125.14 28.61 95.44 28.61 66.03 28.61 36.62 28.61 7.2 58.32 7.2"/><line class="cls-3" x1="28.62" y1="7.2" x2="58.32" y2="7.2"/><line class="cls-3" x1="28.62" y1="242.8" x2="58.32" y2="242.8"/><line class="cls-3" x1="28.62" y1="36.62" x2="28.62" y2="7.2"/><line class="cls-3" x1="28.62" y1="66.03" x2="28.62" y2="36.62"/><line class="cls-3" x1="28.62" y1="95.44" x2="28.62" y2="66.03"/><line class="cls-3" x1="28.62" y1="125.15" x2="28.62" y2="95.44"/><line class="cls-3" x1="28.62" y1="154.56" x2="28.62" y2="125.15"/><line class="cls-3" x1="28.62" y1="183.97" x2="28.62" y2="154.56"/><line class="cls-3" x1="28.62" y1="213.38" x2="28.62" y2="183.97"/><line class="cls-3" x1="28.62" y1="242.8" x2="28.62" y2="213.38"/><line class="cls-3" x1="58.32" y1="7.2" x2="58.32" y2="242.8"/><line class="cls-3" x1="87.73" y1="7.2" x2="117.14" y2="7.2"/><line class="cls-3" x1="87.73" y1="242.8" x2="117.14" y2="242.8"/><line class="cls-3" x1="87.73" y1="36.62" x2="87.73" y2="7.2"/><line class="cls-3" x1="87.73" y1="66.03" x2="87.73" y2="36.62"/><line class="cls-3" x1="87.73" y1="95.44" x2="87.73" y2="66.03"/><line class="cls-3" x1="87.73" y1="125.15" x2="87.73" y2="95.44"/><line class="cls-3" x1="87.73" y1="154.56" x2="87.73" y2="125.15"/><line class="cls-3" x1="87.73" y1="183.97" x2="87.73" y2="154.56"/><line class="cls-3" x1="87.73" y1="213.38" x2="87.73" y2="183.97"/><line class="cls-3" x1="87.73" y1="242.8" x2="87.73" y2="213.38"/><line class="cls-3" x1="117.14" y1="7.2" x2="117.14" y2="242.8"/><line class="cls-3" x1="146.56" y1="7.2" x2="176.26" y2="7.2"/><line class="cls-3" x1="146.56" y1="242.8" x2="176.26" y2="242.8"/><line class="cls-3" x1="146.56" y1="36.62" x2="146.56" y2="7.2"/><line class="cls-3" x1="146.56" y1="66.03" x2="146.56" y2="36.62"/><line class="cls-3" x1="146.56" y1="95.44" x2="146.56" y2="66.03"/><line class="cls-3" x1="146.56" y1="125.15" x2="146.56" y2="95.44"/><line class="cls-3" x1="146.56" y1="154.56" x2="146.56" y2="125.15"/><line class="cls-3" x1="146.56" y1="183.97" x2="146.56" y2="154.56"/><line class="cls-3" x1="146.56" y1="213.38" x2="146.56" y2="183.97"/><line class="cls-3" x1="146.56" y1="242.8" x2="146.56" y2="213.38"/><line class="cls-3" x1="176.26" y1="7.2" x2="176.26" y2="242.8"/><line class="cls-3" x1="205.67" y1="7.2" x2="235.08" y2="7.2"/><line class="cls-3" x1="205.67" y1="242.8" x2="235.08" y2="242.8"/><line class="cls-3" x1="205.67" y1="36.62" x2="205.67" y2="7.2"/><line class="cls-3" x1="205.67" y1="66.03" x2="205.67" y2="36.62"/><line class="cls-3" x1="205.67" y1="95.44" x2="205.67" y2="66.03"/><line class="cls-3" x1="205.67" y1="125.15" x2="205.67" y2="95.44"/><line class="cls-3" x1="205.67" y1="154.56" x2="205.67" y2="125.15"/><line class="cls-3" x1="205.67" y1="183.97" x2="205.67" y2="154.56"/><line class="cls-3" x1="205.67" y1="213.38" x2="205.67" y2="183.97"/><line class="cls-3" x1="205.67" y1="242.8" x2="205.67" y2="213.38"/><line class="cls-3" x1="235.08" y1="7.2" x2="235.08" y2="242.8"/><line class="cls-3" x1="235.23" y1="7.21" x2="264.64" y2="7.21"/><line class="cls-3" x1="235.23" y1="242.79" x2="264.64" y2="242.79"/><line class="cls-3" x1="235.08" y1="36.47" x2="235.08" y2="7.06"/><line class="cls-3" x1="235.08" y1="66.18" x2="235.08" y2="36.47"/><line class="cls-3" x1="235.08" y1="95.59" x2="235.08" y2="66.18"/><line class="cls-3" x1="235.08" y1="125" x2="235.08" y2="95.59"/><line class="cls-3" x1="235.08" y1="154.41" x2="235.08" y2="125"/><line class="cls-3" x1="235.08" y1="183.82" x2="235.08" y2="154.41"/><line class="cls-3" x1="235.08" y1="213.53" x2="235.08" y2="183.82"/><line class="cls-3" x1="235.08" y1="242.94" x2="235.08" y2="213.53"/></g><polygon class="cls-4" points="98.74 90.62 98.74 90.62 95.08 94.29 100.09 95.63 103.75 91.97 98.74 90.62"/></svg>