<svg id="Layer_1" data-name="Layer 1" xmlns="http://www.w3.org/2000/svg" viewBox="0 0 251.16 251.16"><title>digital_media</title><path d="M82.53,86.08v68.11l31.53-10.3V52.13L92.54,35.5l9.56,34.92ZM96,99.67h-5.9l3-5.11h5.9Z"/><path d="M82,154.88v-69l19.5-15.6-9.87-36,22.9,17.69v92.37Zm1-68.56V153.5l30.53-10V52.37L93.42,36.81l9.25,33.8Zm13.24,13.85h-7l3.53-6.11h7Zm-5.32-1H95.7l2.37-4.11H93.32Z"/><polygon points="177.22 72.21 145.59 65.95 145.59 155.78 177.22 179.56 177.22 72.21"/><path d="M177.73,180.56,145.09,156V65.34l32.64,6.46Zm-31.64-25,30.64,23V72.62l-30.64-6.06Z"/><polygon points="208.76 91.77 208.76 203.26 225.66 215.97 225.66 104.18 208.76 91.77"/><path d="M226.16,217l-17.9-13.46V90.78l17.9,13.15Zm-16.9-14,15.9,12V104.44l-15.9-11.69Z"/><polygon points="51 111.55 25.66 145.08 46.34 166.01 51 164.49 51 111.55"/><path d="M46.21,166.58,25,145.13l26.5-35.07v54.8ZM26.32,145l20.16,20.4,4-1.31V113Z"/></svg>